<?xml version="1.0" encoding="UTF-8" standalone="no"?>
<!-- Created with Inkscape (http://www.inkscape.org/) -->

<svg
   version="1.1"
   id="svg1"
   width="282.42133"
   height="248.25787"
   viewBox="0 0 282.42133 248.25787"
   xmlns="http://www.w3.org/2000/svg"
   xmlns:svg="http://www.w3.org/2000/svg">
  <defs
     id="defs1" />
  <g
     id="g1"
     transform="translate(-600.06903,-809.71051)">
    <path
       style="fill:#000000;fill-opacity:1;stroke:none;stroke-width:0.320178"
       d="m 686.46837,1053.7641 v -4.2035 h 52.24781 52.24784 l 0.0871,-35.9475 0.0864,-35.94753 40.89436,-0.0761 40.89449,-0.0761 v -45.92753 -45.92761 h 4.78197 4.782 l -0.0864,50.05642 -0.0864,50.05638 -40.89304,0.0766 -40.89302,0.0761 -0.0864,35.94637 -0.0871,35.9463 -56.94483,0.076 -56.94478,0.076 z M 600.0693,931.73791 v -49.98012 l 40.89444,-0.0761 40.89441,-0.0761 0.0864,-35.94754 0.0866,-35.94752 h 56.85804 56.85806 v 3.90144 3.90149 l -52.3346,0.0761 -52.33455,0.0761 -0.0864,35.94637 -0.0871,35.94634 -40.89295,0.0761 -40.89306,0.0761 -0.0864,46.00388 -0.0864,46.00383 h -4.43846 -4.43831 z m 84.35004,15.15834 v -10.80682 h 2.56129 2.56119 v 8.85558 8.85556 h 9.39125 9.39115 v 1.95126 1.95118 h -11.95239 -11.95249 z m 27.6614,0 v -10.80682 h 2.73193 2.73203 v 10.80682 10.80676 h -2.73203 -2.73193 z m 13.65996,0.0247 v -10.83451 h 11.45108 c 12.19706,0 12.893,0.0724 14.332,1.49102 0.58909,0.58079 0.683,1.09787 0.683,3.76224 0,3.55443 -0.3248,4.11878 -2.70084,4.69286 l -1.39716,0.33772 1.39763,0.52936 c 2.42118,0.91701 2.87111,1.71854 2.87111,5.11438 0,2.67358 -0.0746,3.01648 -0.82968,3.80511 -1.46894,1.53453 -2.46288,1.65705 -14.62314,1.80259 l -11.184,0.13409 z m 20.98273,6.20946 c 0.80045,-1.00457 0.7092,-3.67961 -0.15121,-4.43609 -0.64069,-0.5631 -1.13834,-0.60034 -8.02524,-0.60034 h -7.34219 v 2.85176 2.85178 h 7.49358 c 7.35655,0 7.50334,-0.01 8.02523,-0.66711 z m -0.10766,-8.83493 c 0.28122,-0.29739 0.46892,-1.20885 0.46892,-2.27564 0,-2.65339 0.0724,-2.63132 -8.60272,-2.63132 h -7.27693 v 2.70164 2.70172 h 7.47116 c 6.53298,0 7.52994,-0.0621 7.93981,-0.4965 z m 12.59181,2.59777 v -10.80681 h 11.05605 c 6.08085,0 11.51374,0.0807 12.07317,0.17911 0.55955,0.0984 1.4623,0.4903 2.00632,0.87143 l 0.98912,0.69259 0.10864,4.65412 0.10889,4.65413 -1.01959,1.00353 c -1.00378,0.98793 -1.07085,1.00513 -4.30965,1.10805 -1.80937,0.0575 -3.24365,0.21263 -3.18723,0.34395 0.1314,0.30567 9.58761,7.1864 9.89215,7.19773 0.19673,0.005 2.51798,-3.42362 5.47911,-8.09661 0.47071,-0.74299 1.2059,-1.89124 1.63351,-2.55162 0.42774,-0.66044 1.20135,-1.87617 1.7193,-2.70167 0.51778,-0.82553 1.77278,-2.78425 2.78863,-4.35275 l 1.8469,-2.85178 2.7392,-0.0861 c 2.56105,-0.0807 2.76433,-0.0416 3.1276,0.60037 0.49894,0.88234 2.06097,3.3125 5.26457,8.1914 1.40935,2.14635 2.94966,4.51034 3.42295,5.25329 0.47303,0.74297 1.72559,2.66075 2.78286,4.26182 1.05729,1.60099 1.92241,2.9856 1.92241,3.07689 0,0.0915 -1.3447,0.16394 -2.98815,0.1615 l -2.9881,-0.005 -0.85371,-1.53514 c -0.46953,-0.84439 -1.12045,-1.92295 -1.44637,-2.39686 l -0.59261,-0.86162 h -7.9644 -7.96446 l -1.45572,2.40146 -1.45564,2.40153 -5.86694,-0.0171 -5.86697,-0.0171 -4.95167,-4.18144 -4.95174,-4.18144 -2.81738,-0.005 -2.81735,-0.005 v 4.20266 4.2026 h -2.73201 -2.73203 z m 49.17578,2.14442 c 0,-0.059 -0.95482,-1.67988 -2.12173,-3.60226 -1.16696,-1.92242 -2.35152,-3.93431 -2.63237,-4.47093 -0.28064,-0.5366 -0.59384,-0.97271 -0.69558,-0.96914 -0.22829,0.01 -5.78338,8.93107 -5.63906,9.05794 0.14706,0.12944 11.08874,0.11427 11.08874,-0.0171 z m -28.7618,-3.51232 c 0.66567,-0.41014 0.75828,-0.73269 0.75371,-2.62669 -0.002,-1.18759 -0.12112,-2.31969 -0.26302,-2.51576 -0.57247,-0.79139 -2.36962,-0.99438 -8.80356,-0.99438 h -6.63697 v 3.30208 3.30203 h 7.09552 c 5.86924,0 7.22664,-0.0808 7.85441,-0.46703 z m 46.80525,11.90358 c -2.66663,-0.48255 -3.82376,-1.77401 -3.63158,-4.05342 l 0.10179,-1.20751 2.04899,-0.37292 c 1.12691,-0.20554 2.16423,-0.37858 2.30515,-0.38585 0.14069,-0.005 0.25582,0.52955 0.25582,1.19275 v 1.2058 l 8.79348,-0.0803 8.79362,-0.0803 0.0245,-2.25139 c 0.01,-1.23829 -0.0411,-2.42028 -0.12185,-2.62665 -0.10938,-0.28704 -2.21712,-0.37498 -8.99608,-0.37498 -12.12828,0 -12.00378,0.0543 -12.19872,-5.34419 -0.14363,-3.97823 0.2278,-5.45051 1.57686,-6.25497 0.84775,-0.50531 1.84333,-0.56726 10.48173,-0.65131 8.21983,-0.0803 9.74996,-0.0247 11.02062,0.40236 1.71535,0.57587 2.48548,1.63128 2.48548,3.40649 0,1.18683 -0.01,1.19731 -1.84543,1.66591 -2.76604,0.70687 -2.93556,0.66442 -2.93556,-0.7346 v -1.20617 l -8.11061,0.0807 -8.11055,0.0808 -0.0993,2.47653 -0.0993,2.47655 8.97812,0.0171 c 10.16436,0.022 11.03658,0.1495 11.96568,1.78419 0.77671,1.36665 0.8523,7.28968 0.11305,8.84528 -0.94369,1.98532 -1.60704,2.10343 -12.15013,2.1635 -5.16513,0.0311 -9.95425,-0.0465 -10.64234,-0.17275 z M 626.70614,922.86501 v -10.81993 l 2.45718,0.0883 2.45715,0.0878 5.57134,6.30398 c 3.06422,3.46717 5.68509,6.33393 5.82419,6.37054 0.13898,0.0362 2.75712,-2.83395 5.81793,-6.37903 l 5.56508,-6.44558 h 2.20392 2.20407 v 10.80682 10.80674 h -2.57739 -2.57746 l 0.10179,-7.76256 0.10179,-7.76261 -0.68297,0.97329 c -0.37599,0.53535 -2.75756,3.42244 -5.29318,6.41585 -3.53321,4.17104 -4.76705,5.42401 -5.28153,5.3634 -0.5678,-0.0668 -4.0567,-3.94585 -10.59817,-11.78329 l -0.68304,-0.81833 0.11108,7.68715 0.11109,7.6871 h -2.41636 -2.41641 z m 39.61382,0.0171 v -10.80682 h 12.65249 12.65249 l -0.10252,1.72612 -0.10253,1.72605 -9.64736,0.0798 -9.64729,0.0798 v 2.39684 2.39683 h 5.63469 5.63471 v 1.80114 1.80112 h -5.63471 -5.63469 v 2.85181 2.85174 h 9.73266 9.73274 v 1.95128 1.95121 h -12.63549 -12.63544 z m 31.41786,0 v -10.80682 h 9.40635 c 10.54531,0 12.51635,0.2442 15.39421,1.90626 1.91764,1.10756 3.69941,3.05204 4.24298,4.63042 0.2119,0.615 0.46659,2.14278 0.56662,3.39509 0.2924,3.66766 -1.03309,6.78351 -3.79111,8.91217 -3.02155,2.33202 -5.59578,2.74508 -17.19619,2.75919 l -8.62279,0.01 z m 19.90968,5.89745 c 1.36814,-0.5894 2.26619,-1.23239 2.90275,-2.07837 0.83443,-1.109 0.92046,-1.48269 0.90911,-3.94794 -0.01,-3.03175 -0.44071,-4.07203 -2.20549,-5.37734 -1.6039,-1.1863 -3.06892,-1.39462 -9.8198,-1.39644 l -6.23233,-0.002 v 6.93725 6.93724 l 6.23233,-0.10962 c 6.03395,-0.10595 6.29547,-0.13654 8.21343,-0.96305 z m 15.60606,-5.89745 v -10.80682 h 2.90278 2.9027 v 10.80682 10.80674 h -2.9027 -2.90278 z m 15.77938,10.42874 c -0.61869,-0.17446 -1.46389,-0.73455 -1.8783,-1.24518 -0.72329,-0.89133 -0.75757,-1.24143 -0.85914,-8.77508 -0.11819,-8.7835 0.0245,-9.52218 2.04886,-10.60723 1.06574,-0.57112 1.70271,-0.60589 11.1302,-0.60692 10.87917,-0.001 11.76572,0.11231 12.91218,1.65015 0.38949,0.52246 0.6502,1.60953 0.75011,3.12715 l 0.15317,2.32632 -2.41154,0.35015 c -3.67777,0.5339 -3.47512,0.62725 -3.47512,-1.60116 v -1.95124 h -7.6837 -7.6837 v 6.90435 6.90429 h 7.6837 7.6837 v -2.40721 -2.40723 l 0.93909,0.21018 c 0.51658,0.11525 1.78438,0.36153 2.81738,0.54663 l 1.87824,0.33669 -0.01,2.39447 c -0.01,3.02587 -0.73137,4.29335 -2.73756,4.82506 -1.73965,0.46136 -19.63516,0.48309 -21.25798,0.0247 z m 33.41522,-0.0413 c -0.64703,-0.20553 -1.49227,-0.74514 -1.87827,-1.19919 -0.65833,-0.77441 -0.70834,-1.30347 -0.8069,-8.53418 -0.11966,-8.74129 0.0472,-9.64839 1.94844,-10.77449 1.15419,-0.6828 1.22417,-0.68645 13.18261,-0.68645 16.27996,0 15.14698,-0.80761 15.17737,10.81825 0.0196,7.06021 -0.01,7.42154 -0.74911,8.70291 -0.6228,1.08358 -1.0272,1.40409 -2.13441,1.69155 -1.96092,0.50944 -23.12802,0.49342 -24.73973,-0.022 z m 21.83708,-10.38749 v -6.90437 h -9.3912 -9.39125 v 6.90437 6.90427 h 9.39125 9.3912 z m 12.97687,0 v -10.80682 h 2.37947 2.37946 l 5.70804,6.45407 c 3.13946,3.54971 5.7952,6.45072 5.90184,6.44659 0.10644,-0.002 1.65374,-1.70567 3.43813,-3.78118 1.78433,-2.07554 4.29093,-4.97653 5.57023,-6.44663 l 2.3261,-2.67285 h 2.19878 2.19884 v 10.80682 10.80674 h -2.56129 -2.56119 v -7.5744 -7.57437 l -0.88824,1.14905 c -0.48835,0.63198 -2.81846,3.39879 -5.17754,6.14853 -2.91095,3.39286 -4.51852,5.02011 -5.00266,5.06378 -0.56481,0.0516 -1.81042,-1.24631 -5.9808,-6.22888 -2.89717,-3.46135 -5.2791,-6.29341 -5.2932,-6.29351 -0.01,-1.4e-4 0.0171,3.44454 0.0712,7.65475 l 0.0964,7.65505 h -2.4017 -2.40175 z"
       id="path1" />
    <path
       style="opacity:0.95;fill:#0000ff;stroke:none;stroke-width:1.66499"
       d="m 600.68721,931.61318 v -49.49747 h 40.65864 40.65864 v -29.58986 c 0,-16.27442 0.20674,-32.50252 0.45944,-36.06244 l 0.45944,-6.47259 h 56.1091 56.10911 v 3.53553 3.53554 h -52.32591 -52.3259 v 36.06244 36.06245 h -41.01219 -41.01219 v 45.96194 45.96194 h -3.88909 -3.88909 z"
       id="path2" />
    <path
       style="opacity:0.95;fill:#0000ff;stroke:none;stroke-width:1.66499"
       d="m 684.83292,946.81598 v -10.25305 h 2.12132 2.12132 v 8.83884 8.83883 h 9.54594 c 9.07454,0 9.54594,0.0698 9.54594,1.41422 0,1.35707 -0.4714,1.41421 -11.66726,1.41421 h -11.66726 z"
       id="path3" />
    <path
       style="opacity:0.95;fill:#0000ff;stroke:none;stroke-width:1.66499"
       d="m 712.41008,946.81598 v -10.25305 h 2.47488 2.47487 v 10.25305 10.25305 h -2.47487 -2.47488 z"
       id="path4" />
    <path
       style="opacity:0.95;fill:#0000ff;stroke:none;stroke-width:1.66499"
       d="m 725.84511,946.81598 v -10.25305 h 11.91122 c 10.64138,0 12.03599,0.13786 13.08148,1.29312 2.36236,2.61038 0.87784,7.8627 -2.23901,7.92176 -1.01018,0.0191 -0.97634,0.17349 0.22728,1.03654 2.85943,2.05034 3.18198,2.58686 3.18198,5.29271 0,4.55492 -1.20205,4.96197 -14.65302,4.96197 h -11.50993 z m 21.07178,6.57609 c 1.09072,-1.09071 1.09072,-3.57619 0,-4.6669 -0.55521,-0.55521 -3.48839,-0.84853 -8.48528,-0.84853 h -7.63675 v 3.18198 3.18198 h 7.63675 c 4.99689,0 7.93007,-0.29332 8.48528,-0.84853 z m 0.33972,-10.24358 c 0.68303,-3.57305 0.27118,-3.75713 -8.40568,-3.75713 h -8.05607 v 2.82843 2.82842 h 8.04929 8.0493 z"
       id="path5" />
    <path
       style="opacity:0.95;fill:#0000ff;stroke:none;stroke-width:1.66499"
       d="m 759.78624,946.81598 v -10.25305 h 11.53211 c 14.05681,0 14.0848,0.0128 13.78481,6.30864 -0.23813,4.99761 -0.45905,5.24658 -5.51793,6.21862 l -3.18198,0.61139 4.79546,3.50695 4.79546,3.50695 -2.85496,0.21763 c -2.57395,0.19621 -3.31092,-0.16919 -7.48735,-3.71231 -4.25966,-3.61373 -4.91363,-3.92995 -8.12769,-3.92995 h -3.49529 v 3.88909 c 0,3.8498 -0.0214,3.88909 -2.12132,3.88909 h -2.12132 z m 20.10203,-1.46472 c 1.20651,-1.20651 1.31758,-1.93566 0.66549,-4.36891 -0.4105,-1.53177 -0.72598,-1.59099 -8.47563,-1.59099 h -8.04925 v 3.53553 3.53554 h 7.37411 c 5.76093,0 7.6172,-0.24309 8.48528,-1.11117 z"
       id="path6" />
    <path
       style="opacity:0.95;fill:#0000ff;stroke:none;stroke-width:1.66499"
       d="m 793.97172,946.99276 c 6.23898,-9.57619 6.68905,-10.08686 9.06866,-10.28966 2.49939,-0.213 2.51545,-0.19553 8.9698,9.75509 3.55625,5.48266 6.46592,10.11301 6.46592,10.28966 0,0.17665 -1.04509,0.32118 -2.32242,0.32118 -1.83059,0 -2.58778,-0.44924 -3.57551,-2.12132 l -1.25309,-2.12132 h -8.47819 -8.4782 l -1.20455,2.11685 c -0.94516,1.66101 -1.69473,2.11781 -3.48087,2.12132 l -2.27633,0.004 z m 14.57992,1.76776 c -0.0137,-0.29168 -1.23673,-2.51959 -2.71777,-4.95092 -2.49878,-4.10208 -2.77013,-4.33135 -3.76598,-3.18198 -1.248,1.44038 -4.80499,7.50692 -4.80499,8.19503 0,0.25751 2.54558,0.4682 5.65685,0.4682 3.11127,0 5.64562,-0.23864 5.63189,-0.53033 z"
       id="path7" />
    <path
       style="opacity:0.95;fill:#000080;stroke:none;stroke-width:1.66499"
       d="m 824.66328,956.30528 c -0.68059,-0.3964 -1.23743,-1.50042 -1.23743,-2.45337 0,-1.37673 0.36311,-1.73263 1.76776,-1.73263 1.09995,0 1.76777,0.4007 1.76777,1.06066 0,0.88866 1.4973,1.06066 9.23305,1.06066 h 9.23304 l -0.21743,-3.0052 -0.21744,-3.00521 -9.75045,-0.35355 c -11.01148,-0.39928 -11.08087,-0.43544 -11.09837,-5.78312 -0.0172,-5.25734 0.58095,-5.53059 12.10698,-5.53059 5.46897,0 10.5073,0.32744 11.2632,0.73199 1.65004,0.88307 1.80198,3.19271 0.24924,3.78855 -1.89498,0.72717 -3.12415,0.47873 -3.12415,-0.63145 0,-0.88388 -1.41421,-1.06066 -8.48528,-1.06066 h -8.48528 v 2.77498 2.77498 l 9.86616,0.23022 c 6.88961,0.16077 10.14289,0.50755 10.78338,1.14947 1.22698,1.22969 1.18888,8.082 -0.0533,9.57868 -0.82603,0.9953 -2.56251,1.16614 -11.66726,1.14784 -5.94256,-0.012 -11.24678,-0.34184 -11.93424,-0.74225 z"
       id="path8" />
    <path
       style="opacity:0.95;fill:#000080;stroke:none;stroke-width:1.66499"
       d="M 686.95424,1053.5891 V 1049.7 h 52.3259 52.3259 v -35.5941 -35.59412 l 26.63223,-0.46833 c 14.64773,-0.25758 32.94411,-0.46832 40.65864,-0.46832 h 14.02641 v -45.96195 -45.96194 h 4.5962 4.59619 v 49.85103 49.85103 h -41.01219 -41.0122 v 36.0624 36.0625 h -56.56854 -56.56854 z"
       id="path9" />
    <path
       style="opacity:0.95;fill:#0000ff;fill-opacity:1;stroke:none;stroke-width:1.66499"
       d="m 830.63688,956.51026 c -4.77356,-0.16956 -5.89947,-0.43312 -6.47941,-1.51674 -1.01944,-1.90484 0.81102,-3.3519 2.32493,-1.83799 0.86258,0.86258 2.94511,1.08507 10.15629,1.08507 h 9.07121 l -0.25307,-3.18198 -0.25307,-3.18198 -4.34822,-0.0503 c -6.30206,-0.0729 -15.13504,-0.95487 -15.75308,-1.57291 -0.87202,-0.87202 -0.50271,-7.69074 0.44837,-8.27854 1.50276,-0.92876 9.99662,-1.37385 16.25979,-0.85204 5.51675,0.45962 6.02897,0.63143 6.23637,2.09174 0.18402,1.29576 -0.11121,1.59099 -1.59099,1.59099 -0.99932,0 -1.81695,-0.3182 -1.81695,-0.7071 0,-0.43212 -3.29983,-0.70711 -8.48528,-0.70711 h -8.48528 v 2.72769 2.7277 l 4.34636,0.45429 c 2.39051,0.24985 6.66345,0.45428 9.49544,0.45428 6.17753,0 7.3714,0.84521 7.3714,5.21866 0,4.55932 -0.9129,5.26759 -7.11754,5.52207 -2.94238,0.12069 -7.94965,0.12708 -11.12727,0.0142 z"
       id="path10" />
  </g>
</svg>
